<svg width="76" height="76" viewBox="0 0 76 76" fill="none" xmlns="http://www.w3.org/2000/svg">
<path d="M19.687 46.8621C19.1631 48.1396 19.7739 49.5999 21.0514 50.1238C22.3288 50.6477 23.7891 50.0369 24.313 48.7594L19.687 46.8621ZM37.4017 36.8978L38.2268 34.5378L38.2268 34.5378L37.4017 36.8978ZM56.3086 28.7702C56.8384 27.4952 56.2344 26.0321 54.9594 25.5022C53.6844 24.9723 52.2213 25.5764 51.6914 26.8514L56.3086 28.7702ZM70.5 37.8108C70.5 55.76 55.9493 70.3108 38 70.3108V75.3108C58.7107 75.3108 75.5 58.5215 75.5 37.8108H70.5ZM38 70.3108C20.0507 70.3108 5.5 55.76 5.5 37.8108H0.5C0.5 58.5215 17.2893 75.3108 38 75.3108V70.3108ZM5.5 37.8108C5.5 19.8615 20.0507 5.31079 38 5.31079V0.310791C17.2893 0.310791 0.5 17.1001 0.5 37.8108H5.5ZM38 5.31079C55.9493 5.31079 70.5 19.8615 70.5 37.8108H75.5C75.5 17.1001 58.7107 0.310791 38 0.310791V5.31079ZM24.313 48.7594C25.2186 46.5514 26.3424 43.4207 28.3554 41.1461C29.3168 40.0597 30.3904 39.2862 31.6255 38.9157C32.8388 38.5518 34.4333 38.5083 36.5765 39.2577L38.2268 34.5378C35.2478 33.4962 32.5639 33.4141 30.189 34.1265C27.8359 34.8323 26.0114 36.2501 24.6111 37.8325C21.9004 40.8954 20.4457 45.0122 19.687 46.8621L24.313 48.7594ZM36.5765 39.2577C40.2565 40.5443 44.081 41.1311 47.6971 39.468C51.2782 37.8209 54.0297 34.2538 56.3086 28.7702L51.6914 26.8514C49.6067 31.8678 47.5097 34.0506 45.6079 34.9254C43.741 35.784 41.4483 35.6642 38.2268 34.5378L36.5765 39.2577Z" fill="#2F295A"/>
</svg>
