<svg width="72" height="66" viewBox="0 0 72 66" fill="none" xmlns="http://www.w3.org/2000/svg">
<path d="M29.9698 4.71156C37.2753 17.1242 37.5305 18.8168 45.7051 23.3306C49.4517 25.3994 67.1879 23.3509 65.937 37.9997C64.2506 57.7477 27.1599 84.8296 6.3665 47.0272C-14.4269 9.22478 21.6593 -9.4087 29.9698 4.71156Z" fill="#E1D7F0"/>
<path d="M54.2929 30.3698L40.7071 16.784C40.3166 16.3935 40.3166 15.7603 40.7071 15.3698L47.3698 8.70711C47.7603 8.31658 48.3935 8.31658 48.784 8.70711L62.3698 22.2929C62.7603 22.6834 63.3935 22.6834 63.784 22.2929L68.2929 17.784C68.9229 17.1541 70 17.6002 70 18.4911V37C70 37.5523 69.5523 38 69 38H50.4911C49.6002 38 49.1541 36.9229 49.784 36.2929L54.2929 31.784C54.6834 31.3935 54.6834 30.7603 54.2929 30.3698Z" stroke="#2F295A" stroke-width="2.5"/>
<path d="M35.7071 35.6302L49.2929 49.216C49.6834 49.6065 49.6834 50.2397 49.2929 50.6302L42.6302 57.2929C42.2397 57.6834 41.6065 57.6834 41.216 57.2929L27.6302 43.7071C27.2397 43.3166 26.6065 43.3166 26.216 43.7071L21.7071 48.216C21.0771 48.8459 20 48.3998 20 47.5089V29C20 28.4477 20.4477 28 21 28H39.5089C40.3998 28 40.8459 29.0771 40.216 29.7071L35.7071 34.216C35.3166 34.6065 35.3166 35.2397 35.7071 35.6302Z" stroke="#2F295A" stroke-width="2.5"/>
</svg>
